<svg width="186" height="37" viewBox="0 0 186 37" fill="none" xmlns="http://www.w3.org/2000/svg">
<path d="M51.08 25.3162C50.0933 25.3162 49.1867 25.1495 48.36 24.8162C47.5467 24.4829 46.8933 23.9829 46.4 23.3162C45.9067 22.6495 45.6467 21.8429 45.62 20.8962C45.62 20.7762 45.66 20.6762 45.74 20.5962C45.82 20.5029 45.92 20.4562 46.04 20.4562H47.94C48.2333 20.4562 48.4333 20.6295 48.54 20.9762C48.6333 21.6695 48.9067 22.1829 49.36 22.5162C49.8267 22.8495 50.42 23.0162 51.14 23.0162C51.98 23.0162 52.62 22.7429 53.06 22.1962C53.5133 21.6495 53.74 20.8895 53.74 19.9162V13.4762H46.96C46.8267 13.4762 46.7133 13.4295 46.62 13.3362C46.5267 13.2429 46.48 13.1295 46.48 12.9962V11.5962C46.48 11.4495 46.5267 11.3362 46.62 11.2562C46.7133 11.1629 46.8267 11.1162 46.96 11.1162H56.1C56.2467 11.1162 56.3667 11.1629 56.46 11.2562C56.5533 11.3495 56.6 11.4695 56.6 11.6162V19.9962C56.6 21.1029 56.3733 22.0562 55.92 22.8562C55.4667 23.6562 54.82 24.2695 53.98 24.6962C53.1533 25.1095 52.1867 25.3162 51.08 25.3162ZM60.0869 25.1162C59.9535 25.1162 59.8402 25.0695 59.7469 24.9762C59.6535 24.8829 59.6069 24.7695 59.6069 24.6362V11.6162C59.6069 11.4695 59.6469 11.3495 59.7269 11.2562C59.8202 11.1629 59.9402 11.1162 60.0869 11.1162H65.4469C67.0469 11.1162 68.3069 11.4962 69.2269 12.2562C70.1469 13.0029 70.6069 14.1029 70.6069 15.5562C70.6069 17.0095 70.1469 18.1095 69.2269 18.8562C68.3202 19.5895 67.0602 19.9562 65.4469 19.9562H62.4669V24.6362C62.4669 24.7695 62.4202 24.8829 62.3269 24.9762C62.2469 25.0695 62.1335 25.1162 61.9869 25.1162H60.0869ZM65.3469 17.7362C66.1202 17.7362 66.7135 17.5562 67.1269 17.1962C67.5402 16.8229 67.7469 16.2762 67.7469 15.5562C67.7469 14.8629 67.5469 14.3229 67.1469 13.9362C66.7469 13.5362 66.1469 13.3362 65.3469 13.3362H62.4269V17.7362H65.3469ZM78.1905 25.3162C76.3505 25.3162 74.9238 24.8429 73.9105 23.8962C72.9105 22.9495 72.3771 21.6162 72.3105 19.8962C72.2971 19.5362 72.2905 18.9495 72.2905 18.1362C72.2905 17.3095 72.2971 16.7095 72.3105 16.3362C72.3771 14.6295 72.9171 13.3029 73.9305 12.3562C74.9571 11.3962 76.3771 10.9162 78.1905 10.9162C79.3771 10.9162 80.4105 11.1229 81.2905 11.5362C82.1705 11.9362 82.8505 12.4895 83.3305 13.1962C83.8105 13.8895 84.0638 14.6762 84.0905 15.5562V15.5962C84.0905 15.7029 84.0438 15.7962 83.9505 15.8762C83.8705 15.9429 83.7771 15.9762 83.6705 15.9762H81.7705C81.6105 15.9762 81.4905 15.9429 81.4105 15.8762C81.3305 15.8095 81.2638 15.6829 81.2105 15.4962C80.9971 14.6562 80.6438 14.0695 80.1505 13.7362C79.6571 13.3895 78.9971 13.2162 78.1705 13.2162C76.2505 13.2162 75.2505 14.2895 75.1705 16.4362C75.1571 16.7962 75.1505 17.3495 75.1505 18.0962C75.1505 18.8429 75.1571 19.4095 75.1705 19.7962C75.2505 21.9429 76.2505 23.0162 78.1705 23.0162C78.9971 23.0162 79.6571 22.8429 80.1505 22.4962C80.6571 22.1495 81.0105 21.5629 81.2105 20.7362C81.2505 20.5495 81.3105 20.4229 81.3905 20.3562C81.4838 20.2895 81.6105 20.2562 81.7705 20.2562H83.6705C83.7905 20.2562 83.8905 20.2962 83.9705 20.3762C84.0638 20.4562 84.1038 20.5562 84.0905 20.6762C84.0638 21.5562 83.8105 22.3495 83.3305 23.0562C82.8505 23.7495 82.1705 24.3029 81.2905 24.7162C80.4105 25.1162 79.3771 25.3162 78.1905 25.3162ZM91.3727 25.1162C91.2393 25.1162 91.1193 25.0695 91.0127 24.9762C90.9193 24.8695 90.8727 24.7495 90.8727 24.6162V11.6162C90.8727 11.4695 90.9193 11.3495 91.0127 11.2562C91.1193 11.1629 91.2393 11.1162 91.3727 11.1162H96.9727C98.6793 11.1162 100.019 11.5095 100.993 12.2962C101.979 13.0829 102.473 14.2295 102.473 15.7362C102.473 17.2295 101.986 18.3562 101.013 19.1162C100.039 19.8629 98.6927 20.2362 96.9727 20.2362H94.5927V24.6162C94.5927 24.7629 94.5393 24.8829 94.4327 24.9762C94.3393 25.0695 94.2193 25.1162 94.0727 25.1162H91.3727ZM96.8727 17.4762C97.4593 17.4762 97.9193 17.3295 98.2527 17.0362C98.586 16.7295 98.7527 16.2829 98.7527 15.6962C98.7527 15.1495 98.5927 14.7162 98.2727 14.3962C97.966 14.0629 97.4993 13.8962 96.8727 13.8962H94.5327V17.4762H96.8727ZM108.971 25.3162C107.318 25.3162 106.044 24.9229 105.151 24.1362C104.258 23.3495 103.771 22.2429 103.691 20.8162C103.678 20.6429 103.671 20.3429 103.671 19.9162C103.671 19.4895 103.678 19.1895 103.691 19.0162C103.771 17.6029 104.271 16.5029 105.191 15.7162C106.111 14.9162 107.371 14.5162 108.971 14.5162C110.584 14.5162 111.851 14.9162 112.771 15.7162C113.691 16.5029 114.191 17.6029 114.271 19.0162C114.284 19.1895 114.291 19.4895 114.291 19.9162C114.291 20.3429 114.284 20.6429 114.271 20.8162C114.191 22.2429 113.704 23.3495 112.811 24.1362C111.918 24.9229 110.638 25.3162 108.971 25.3162ZM108.971 22.8762C109.558 22.8762 109.991 22.7029 110.271 22.3562C110.551 21.9962 110.711 21.4495 110.751 20.7162C110.764 20.5829 110.771 20.3162 110.771 19.9162C110.771 19.5162 110.764 19.2495 110.751 19.1162C110.711 18.3962 110.544 17.8562 110.251 17.4962C109.971 17.1362 109.544 16.9562 108.971 16.9562C107.864 16.9562 107.278 17.6762 107.211 19.1162L107.191 19.9162L107.211 20.7162C107.238 21.4495 107.391 21.9962 107.671 22.3562C107.964 22.7029 108.398 22.8762 108.971 22.8762ZM116.778 25.1162C116.644 25.1162 116.524 25.0695 116.418 24.9762C116.324 24.8695 116.278 24.7495 116.278 24.6162V11.4162C116.278 11.2695 116.324 11.1495 116.418 11.0562C116.524 10.9629 116.644 10.9162 116.778 10.9162H119.138C119.284 10.9162 119.404 10.9629 119.498 11.0562C119.591 11.1495 119.638 11.2695 119.638 11.4162V24.6162C119.638 24.7629 119.591 24.8829 119.498 24.9762C119.404 25.0695 119.284 25.1162 119.138 25.1162H116.778ZM122.48 13.2162C122.334 13.2162 122.214 13.1695 122.12 13.0762C122.027 12.9829 121.98 12.8629 121.98 12.7162V10.9162C121.98 10.7695 122.027 10.6495 122.12 10.5562C122.214 10.4629 122.334 10.4162 122.48 10.4162H124.88C125.027 10.4162 125.147 10.4629 125.24 10.5562C125.334 10.6495 125.38 10.7695 125.38 10.9162V12.7162C125.38 12.8629 125.334 12.9829 125.24 13.0762C125.147 13.1695 125.027 13.2162 124.88 13.2162H122.48ZM122.5 25.1162C122.354 25.1162 122.234 25.0695 122.14 24.9762C122.047 24.8829 122 24.7629 122 24.6162V15.2162C122 15.0695 122.047 14.9495 122.14 14.8562C122.234 14.7629 122.354 14.7162 122.5 14.7162H124.86C125.007 14.7162 125.127 14.7629 125.22 14.8562C125.314 14.9495 125.36 15.0695 125.36 15.2162V24.6162C125.36 24.7495 125.314 24.8695 125.22 24.9762C125.127 25.0695 125.007 25.1162 124.86 25.1162H122.5ZM130.623 25.1162C130.436 25.1162 130.29 25.0762 130.183 24.9962C130.09 24.9029 130.016 24.7762 129.963 24.6162L127.083 15.3562L127.043 15.1562C127.043 15.0362 127.09 14.9362 127.183 14.8562C127.276 14.7629 127.383 14.7162 127.503 14.7162H129.563C129.723 14.7162 129.856 14.7629 129.963 14.8562C130.07 14.9362 130.136 15.0295 130.163 15.1362L131.843 20.8562L133.643 15.1562C133.67 15.0495 133.736 14.9495 133.843 14.8562C133.95 14.7629 134.09 14.7162 134.263 14.7162H135.583C135.756 14.7162 135.896 14.7629 136.003 14.8562C136.11 14.9495 136.176 15.0495 136.203 15.1562L138.003 20.8562L139.683 15.1362C139.71 15.0295 139.776 14.9362 139.883 14.8562C139.99 14.7629 140.123 14.7162 140.283 14.7162H142.343C142.463 14.7162 142.57 14.7629 142.663 14.8562C142.756 14.9362 142.803 15.0362 142.803 15.1562L142.763 15.3562L139.883 24.6162C139.83 24.7762 139.75 24.9029 139.643 24.9962C139.55 25.0762 139.41 25.1162 139.223 25.1162H137.423C137.076 25.1162 136.856 24.9495 136.763 24.6162L134.923 19.1362L133.083 24.6162C132.99 24.9495 132.77 25.1162 132.423 25.1162H130.623ZM147.249 25.3162C146.543 25.3162 145.896 25.1829 145.309 24.9162C144.736 24.6362 144.283 24.2629 143.949 23.7962C143.629 23.3162 143.469 22.7895 143.469 22.2162C143.469 21.2962 143.843 20.5562 144.589 19.9962C145.349 19.4362 146.389 19.0495 147.709 18.8362L150.209 18.4562V18.1762C150.209 17.6695 150.103 17.2962 149.889 17.0562C149.676 16.8162 149.316 16.6962 148.809 16.6962C148.503 16.6962 148.249 16.7495 148.049 16.8562C147.849 16.9629 147.643 17.1095 147.429 17.2962C147.243 17.4562 147.103 17.5629 147.009 17.6162C146.969 17.7229 146.896 17.7762 146.789 17.7762H144.609C144.476 17.7762 144.363 17.7362 144.269 17.6562C144.189 17.5629 144.156 17.4562 144.169 17.3362C144.183 16.9762 144.356 16.5762 144.689 16.1362C145.036 15.6962 145.556 15.3162 146.249 14.9962C146.956 14.6762 147.823 14.5162 148.849 14.5162C150.489 14.5162 151.703 14.8829 152.489 15.6162C153.276 16.3362 153.669 17.3095 153.669 18.5362V24.6162C153.669 24.7495 153.623 24.8695 153.529 24.9762C153.436 25.0695 153.316 25.1162 153.169 25.1162H150.849C150.716 25.1162 150.596 25.0695 150.489 24.9762C150.396 24.8695 150.349 24.7495 150.349 24.6162V23.9162C150.056 24.3295 149.643 24.6695 149.109 24.9362C148.589 25.1895 147.969 25.3162 147.249 25.3162ZM148.189 23.0362C148.803 23.0362 149.296 22.8362 149.669 22.4362C150.056 22.0362 150.249 21.4495 150.249 20.6762V20.3962L148.549 20.6962C147.349 20.9095 146.749 21.3295 146.749 21.9562C146.749 22.2895 146.889 22.5562 147.169 22.7562C147.449 22.9429 147.789 23.0362 148.189 23.0362ZM156.426 25.1162C156.279 25.1162 156.159 25.0695 156.066 24.9762C155.973 24.8829 155.926 24.7629 155.926 24.6162V15.2162C155.926 15.0695 155.973 14.9495 156.066 14.8562C156.159 14.7629 156.279 14.7162 156.426 14.7162H158.726C158.873 14.7162 158.993 14.7629 159.086 14.8562C159.193 14.9495 159.246 15.0695 159.246 15.2162V15.9762C159.606 15.5362 160.066 15.1829 160.626 14.9162C161.199 14.6495 161.846 14.5162 162.566 14.5162C163.739 14.5162 164.693 14.9162 165.426 15.7162C166.159 16.5029 166.526 17.6095 166.526 19.0362V24.6162C166.526 24.7495 166.479 24.8695 166.386 24.9762C166.293 25.0695 166.173 25.1162 166.026 25.1162H163.506C163.373 25.1162 163.253 25.0695 163.146 24.9762C163.053 24.8695 163.006 24.7495 163.006 24.6162V19.1562C163.006 18.5295 162.853 18.0495 162.546 17.7162C162.239 17.3695 161.799 17.1962 161.226 17.1962C160.666 17.1962 160.226 17.3695 159.906 17.7162C159.586 18.0495 159.426 18.5295 159.426 19.1562V24.6162C159.426 24.7495 159.379 24.8695 159.286 24.9762C159.193 25.0695 159.073 25.1162 158.926 25.1162H156.426ZM173.878 29.5162C172.611 29.5162 171.584 29.3095 170.798 28.8962C170.011 28.4829 169.444 28.0095 169.098 27.4762C168.764 26.9429 168.598 26.4962 168.598 26.1362C168.598 26.0162 168.651 25.9095 168.758 25.8162C168.864 25.7229 168.984 25.6762 169.118 25.6762H171.658C171.791 25.6762 171.891 25.7029 171.958 25.7562C172.038 25.8229 172.111 25.9295 172.178 26.0762C172.311 26.3829 172.491 26.6229 172.718 26.7962C172.944 26.9829 173.298 27.0762 173.778 27.0762C174.391 27.0762 174.844 26.9229 175.138 26.6162C175.431 26.3229 175.578 25.8229 175.578 25.1162V23.7762C174.898 24.5229 173.924 24.8962 172.658 24.8962C171.311 24.8962 170.278 24.5029 169.558 23.7162C168.851 22.9162 168.464 21.7629 168.398 20.2562L168.378 19.7162C168.378 18.1029 168.738 16.8362 169.458 15.9162C170.178 14.9829 171.244 14.5162 172.658 14.5162C173.338 14.5162 173.938 14.6495 174.458 14.9162C174.978 15.1695 175.418 15.5162 175.778 15.9562V15.2162C175.778 15.0695 175.824 14.9495 175.918 14.8562C176.024 14.7629 176.144 14.7162 176.278 14.7162H178.578C178.724 14.7162 178.844 14.7695 178.938 14.8762C179.044 14.9695 179.098 15.0829 179.098 15.2162V24.8362C179.098 26.3562 178.644 27.5162 177.738 28.3162C176.831 29.1162 175.544 29.5162 173.878 29.5162ZM173.738 22.2962C174.338 22.2962 174.784 22.1162 175.078 21.7562C175.371 21.3829 175.538 20.9162 175.578 20.3562C175.591 20.2629 175.598 20.0562 175.598 19.7362C175.598 19.4295 175.591 19.2295 175.578 19.1362C175.551 18.5762 175.384 18.1162 175.078 17.7562C174.784 17.3829 174.338 17.1962 173.738 17.1962C173.111 17.1962 172.658 17.3829 172.378 17.7562C172.098 18.1295 171.944 18.6429 171.918 19.2962L171.898 19.7362C171.898 20.5229 172.031 21.1495 172.298 21.6162C172.564 22.0695 173.044 22.2962 173.738 22.2962ZM181.933 13.2162C181.787 13.2162 181.667 13.1695 181.573 13.0762C181.48 12.9829 181.433 12.8629 181.433 12.7162V10.9162C181.433 10.7695 181.48 10.6495 181.573 10.5562C181.667 10.4629 181.787 10.4162 181.933 10.4162H184.333C184.48 10.4162 184.6 10.4629 184.693 10.5562C184.787 10.6495 184.833 10.7695 184.833 10.9162V12.7162C184.833 12.8629 184.787 12.9829 184.693 13.0762C184.6 13.1695 184.48 13.2162 184.333 13.2162H181.933ZM181.953 25.1162C181.807 25.1162 181.687 25.0695 181.593 24.9762C181.5 24.8829 181.453 24.7629 181.453 24.6162V15.2162C181.453 15.0695 181.5 14.9495 181.593 14.8562C181.687 14.7629 181.807 14.7162 181.953 14.7162H184.313C184.46 14.7162 184.58 14.7629 184.673 14.8562C184.767 14.9495 184.813 15.0695 184.813 15.2162V24.6162C184.813 24.7495 184.767 24.8695 184.673 24.9762C184.58 25.0695 184.46 25.1162 184.313 25.1162H181.953Z" fill="#0B132A"/>
<path d="M31.1473 13.6477L31.1255 13.626C31.1238 13.6247 31.1224 13.6231 31.1215 13.6212L17.5006 0L3.87983 13.6209C3.87826 13.6225 3.8758 13.6256 3.8758 13.6256L3.85333 13.6474C1.77053 15.7419 0.447586 18.4725 0.0948177 21.4052C-0.25795 24.3379 0.379698 27.3044 1.90639 29.8331C3.43309 32.3619 5.76122 34.3077 8.52069 35.3612C11.2802 36.4147 14.3126 36.5157 17.136 35.6477C17.3735 35.5751 17.6275 35.5751 17.8651 35.6477C20.6882 36.5153 23.7205 36.4144 26.4798 35.3607C29.2391 34.307 31.567 32.3613 33.0936 29.8328C34.6202 27.3042 35.2579 24.3379 34.9053 21.4054C34.5526 18.4728 33.2299 15.7422 31.1473 13.6477ZM8.7232 22.6298C8.65689 22.6961 8.6043 22.7749 8.56844 22.8615C8.53257 22.948 8.5141 23.0408 8.51412 23.1346C8.53835 25.5386 9.21776 27.8904 10.4792 29.9371C10.5079 29.9835 10.5211 30.0379 10.517 30.0922C10.513 30.1465 10.4918 30.1982 10.4566 30.2399C10.4213 30.2816 10.3738 30.311 10.3209 30.324C10.2679 30.337 10.2122 30.333 10.1616 30.3124C9.21332 29.9135 8.35182 29.3336 7.62531 28.6053C6.13646 27.1162 5.29946 25.097 5.2981 22.9912C5.29675 20.8855 6.13117 18.8652 7.61812 17.3743L17.5006 7.49273L27.3826 17.3743C28.8698 18.865 29.7045 20.8853 29.703 22.9912C29.7018 25.097 28.8647 27.1162 27.3757 28.6053C26.6492 29.3336 25.7877 29.9135 24.8396 30.3124C24.7889 30.333 24.7332 30.337 24.6802 30.324C24.6273 30.311 24.5798 30.2814 24.5445 30.2399C24.5093 30.1982 24.488 30.1465 24.484 30.092C24.4799 30.0377 24.4931 29.9833 24.5218 29.9369C25.7835 27.8904 26.4633 25.5386 26.4879 23.1346C26.4879 23.0408 26.4692 22.948 26.4332 22.8613C26.3971 22.7746 26.3444 22.696 26.2779 22.6296L21.6037 17.6717C21.5571 17.6329 21.4985 17.6116 21.4378 17.6116C21.3773 17.6116 21.3186 17.6329 21.2721 17.6717C21.2255 17.7104 21.1942 17.7644 21.1833 17.824C21.1724 17.8837 21.1828 17.945 21.2127 17.9978C23.0281 21.283 21.467 26.0017 18.8637 28.6053L18.85 28.6191C18.4907 28.9745 18.0056 29.1738 17.5002 29.1736C16.9948 29.1734 16.5098 28.9738 16.1508 28.6182L16.1382 28.6053C13.5339 26.0017 11.9736 21.2835 13.7893 17.9985C13.8192 17.9457 13.8296 17.8844 13.8187 17.8247C13.8079 17.7651 13.7764 17.7111 13.7299 17.6724C13.6834 17.6336 13.6247 17.6123 13.5642 17.6123C13.5036 17.6123 13.4449 17.6336 13.3984 17.6724L8.7232 22.6298Z" fill="#FFAB00"/>
</svg>
