<svg width="511" height="421" viewBox="0 0 511 421" fill="none" xmlns="http://www.w3.org/2000/svg">
<path d="M381.649 299.659L341.927 276.341L310.726 322.773C328.954 337.985 359.577 349.048 375.401 345.67C407.875 338.737 473.498 246.534 482.604 239.514C513.602 215.617 523.678 206.548 484.89 225.117C447.909 242.821 467.496 225.117 458.436 225.117C447.551 225.877 451.158 235.538 455.198 242.46L381.649 299.659Z" fill="url(#paint0_linear)"/>
<path d="M156.267 264.334C167.474 256.552 211.756 242.534 231.204 236.498L251.779 238.742C264.743 241.956 292.549 247.436 305.34 252.621C318.131 257.806 341.343 274.343 362.998 288.133L357.885 305.841C353.293 321.744 341.149 334.357 325.432 339.547C321.387 365.269 317.899 407.086 318.475 420.05L167.989 419.934L161.099 356.285L130.111 359.605L103.934 339.547C136.711 282.854 142.259 274.062 156.267 264.334Z" fill="url(#paint1_linear)"/>
<path d="M113.216 410.589C65.5353 404.543 96.5464 356.218 105 340.259C115.225 348.866 127.851 354.117 141.164 355.3L157.595 356.76L150.867 372.281L223.506 389.287L233.697 417.558C226.438 416.322 172.509 418.107 113.216 410.589Z" fill="url(#paint2_linear)"/>
<path d="M236.275 109.623C238.622 105.38 245.352 99.4385 253.5 109.623H236.275Z" fill="#30235B"/>
<ellipse cx="240.187" cy="255.006" rx="25.9725" ry="18.5082" fill="#CF0606"/>
<path d="M218.906 254.011L222.536 217.862H257.881L261.941 254.011C260.522 258.268 253.822 266.904 241.416 266.904C225.603 266.904 219.919 258.268 218.906 254.011Z" fill="url(#paint3_linear)"/>
<mask id="mask0" mask-type="alpha" maskUnits="userSpaceOnUse" x="218" y="217" width="44" height="50">
<path d="M218.906 254.011L222.536 217.862H257.881L261.949 254.084C260.53 258.341 253.807 266.905 241.4 266.905C225.588 266.905 219.919 258.268 218.906 254.011Z" fill="url(#paint4_linear)"/>
</mask>
<g mask="url(#mask0)">
<path opacity="0.1" d="M270.619 219.246C238.66 258.788 220.801 226.994 211.576 222.225L217.915 195.493L255.757 190.974L270.619 219.246Z" fill="black"/>
</g>
<path d="M239.574 232.374C201.457 232.374 194.902 177.66 206.679 152.633C233.177 120.246 266.301 139.138 279.55 152.633C282.74 173.488 286.257 232.374 239.574 232.374Z" fill="url(#paint5_linear)"/>
<path d="M280.201 190.516L272.733 185.015L273.888 180.919L282.418 186.544L280.201 190.516Z" fill="#111111"/>
<path d="M202.396 188.921L209.864 183.419L208.709 179.324L200.179 184.948L202.396 188.921Z" fill="#111111"/>
<path d="M209.23 155.921C236.253 173.528 266.212 163.257 277.813 155.921C275.37 163.625 278.831 178.434 280.866 184.875C298.45 161.977 292.701 149.612 287.629 146.291C286.784 134.879 276.409 106.345 241.58 107.697C206.751 109.05 199.992 133.752 200.979 142.91C187.791 160.832 195.637 178.354 201.997 184.875C209.23 170.835 209.065 160.986 209.23 155.921Z" fill="#30235B"/>
<g filter="url(#filter0_d)">
<path d="M244.348 125.318C204.005 123.968 195.019 150.499 193.813 165.905C193.716 167.139 192.707 168.11 191.47 168.11C190.149 168.11 189.097 167.01 189.215 165.695C190.975 145.941 201.507 111.422 244.348 113.802C287.604 116.205 296.066 150.64 294.739 169.836C294.668 170.863 293.8 171.639 292.77 171.639C291.647 171.639 290.746 170.728 290.701 169.606C290.065 153.679 279.476 126.336 244.348 125.318Z" fill="white"/>
</g>
<g filter="url(#filter1_d)">
<rect width="5.4757" height="21.0131" rx="2.73785" transform="matrix(0.984643 0.174582 -0.174578 0.984643 295.546 177.939)" fill="#24C28A"/>
</g>
<g filter="url(#filter2_d)">
<rect x="283.782" y="164.316" width="16.8668" height="43.7733" rx="8.43338" transform="rotate(10.0542 283.782 164.316)" fill="white"/>
</g>
<g filter="url(#filter3_d)">
<rect width="5.4757" height="21.0131" rx="2.73785" transform="matrix(-0.984643 0.174582 0.174578 0.984643 186.636 177.939)" fill="#24C28A"/>
</g>
<g filter="url(#filter4_d)">
<rect width="16.8668" height="43.7733" rx="8.43338" transform="matrix(-0.984643 0.17458 0.17458 0.984643 198.247 164.316)" fill="white"/>
</g>
<mask id="mask1" mask-type="alpha" maskUnits="userSpaceOnUse" x="181" y="164" width="25" height="47">
<rect width="16.8668" height="43.7733" rx="8.43338" transform="matrix(-0.984643 0.17458 0.17458 0.984643 198.247 164.316)" fill="white"/>
</mask>
<g mask="url(#mask1)">
<rect x="190.305" y="164.316" width="21.9399" height="47.5168" transform="rotate(-10.0977 190.305 164.316)" fill="#E8E8E8"/>
</g>
<mask id="mask2" mask-type="alpha" maskUnits="userSpaceOnUse" x="276" y="164" width="25" height="47">
<rect x="283.782" y="164.316" width="16.8668" height="43.7733" rx="8.43338" transform="rotate(10.0542 283.782 164.316)" fill="white"/>
</mask>
<g mask="url(#mask2)">
<rect width="21.9399" height="47.5168" transform="matrix(-0.98451 -0.175326 -0.175326 0.98451 292.748 164.316)" fill="#E8E8E8"/>
</g>
<path opacity="0.5" d="M223.149 196.907C217.757 196.907 215.041 192.658 214.351 190.76C213.557 189.173 212.931 185.038 214.81 181.753C217.199 177.577 228.428 176.413 232.362 182.313C236.295 188.213 232.362 196.907 223.149 196.907Z" fill="#E6FCFF"/>
<path opacity="0.5" d="M258.88 196.907C264.273 196.907 266.988 192.658 267.678 190.76C268.472 189.173 269.099 185.038 267.22 181.753C264.831 177.577 253.601 176.413 249.668 182.313C245.734 188.213 249.668 196.907 258.88 196.907Z" fill="#E6FCFF"/>
<path fill-rule="evenodd" clip-rule="evenodd" d="M235.147 181.01C226.353 173.287 218.409 176.555 213.702 178.491C213.179 178.707 212.695 178.905 212.255 179.071L209.308 179.076C208.753 179.077 208.305 179.53 208.31 180.085L208.332 182.563C208.337 183.112 208.783 183.554 209.332 183.554L211.463 183.554C209.919 196.805 219.691 200.351 227.506 197.962C234.474 195.833 236.339 189.808 236.712 186.028C238.203 182.725 244.737 184.251 244.995 185.954C245.001 185.994 245.008 186.039 245.015 186.088L245.015 186.088C245.322 188.162 246.867 198.611 258.63 198.625C268.265 198.637 270.878 190.03 270.981 185.724L273.475 185.702C274.027 185.697 274.471 185.246 274.466 184.693L274.439 181.662C274.434 181.11 273.982 180.666 273.43 180.671L270.936 180.693C264.66 174.335 251.178 174.93 246.43 180.91C241.19 179.702 236.725 180.474 235.147 181.01ZM223.149 196.907C217.757 196.907 215.041 192.657 214.351 190.76C213.558 189.173 212.931 185.038 214.81 181.753C217.199 177.577 228.428 176.412 232.362 182.312C236.295 188.212 232.362 196.907 223.149 196.907ZM267.68 190.76C266.989 192.657 264.274 196.907 258.881 196.907C249.669 196.907 245.736 188.212 249.669 182.312C253.602 176.412 264.832 177.577 267.221 181.753C269.1 185.038 268.473 189.173 267.68 190.76Z" fill="#111111"/>
<path d="M164.801 414.687C164.801 414.132 165.251 413.683 165.806 413.683H320.198C321.169 413.683 321.956 414.47 321.956 415.441C321.956 418.353 319.595 420.715 316.682 420.715H170.829C167.5 420.715 164.801 418.016 164.801 414.687Z" fill="#B4B4B4"/>
<rect x="164.801" y="311.147" width="157.155" height="105.147" rx="2.94666" fill="url(#paint6_linear)"/>
<circle cx="243.378" cy="363.721" r="11.1765" fill="white"/>
<path fill-rule="evenodd" clip-rule="evenodd" d="M131.715 175.875C131.915 172.467 132.594 169.613 133.161 168.027C134.273 170.809 134.823 173.48 135.009 175.915C137.445 176.101 140.116 176.651 142.897 177.764C141.311 178.331 138.458 179.01 135.049 179.21C134.859 182.828 133.929 185.64 133.161 187.08C132.226 184.463 131.799 181.772 131.688 179.236C129.153 179.125 126.461 178.699 123.844 177.764C125.285 176.996 128.096 176.065 131.715 175.875Z" fill="url(#paint7_linear)"/>
<path fill-rule="evenodd" clip-rule="evenodd" d="M104.828 153.449C104.96 151.18 105.413 149.28 105.79 148.225C106.53 150.076 106.896 151.854 107.02 153.475C108.641 153.599 110.419 153.965 112.271 154.706C111.215 155.083 109.316 155.535 107.047 155.668C106.92 158.077 106.301 159.948 105.79 160.907C105.167 159.165 104.884 157.373 104.81 155.686C103.122 155.612 101.33 155.328 99.5885 154.706C100.547 154.195 102.419 153.575 104.828 153.449Z" fill="url(#paint8_linear)"/>
<path fill-rule="evenodd" clip-rule="evenodd" d="M61.5045 137.471C61.7038 134.062 62.3834 131.209 62.9499 129.623C64.0626 132.405 64.6126 135.075 64.7986 137.511C67.2342 137.697 69.9049 138.247 72.6868 139.36C71.1008 139.926 68.2474 140.606 64.8387 140.805C64.6486 144.424 63.7179 147.236 62.9499 148.676C62.0153 146.059 61.5888 143.367 61.4776 140.832C58.9423 140.721 56.2506 140.294 53.6337 139.36C55.0739 138.592 57.8856 137.661 61.5045 137.471Z" fill="url(#paint9_linear)"/>
<path fill-rule="evenodd" clip-rule="evenodd" d="M65.2133 215.812C65.5065 210.797 66.5064 206.599 67.3398 204.265C68.9769 208.358 69.7861 212.287 70.0597 215.871C73.643 216.144 77.5723 216.954 81.665 218.591C79.3317 219.424 75.1336 220.424 70.1186 220.717C69.839 226.041 68.4698 230.178 67.3398 232.297C65.9648 228.447 65.3373 224.487 65.1737 220.757C61.4438 220.593 57.4836 219.966 53.6336 218.591C55.7524 217.461 59.8891 216.091 65.2133 215.812Z" fill="url(#paint10_linear)"/>
<circle cx="95.6822" cy="186.157" r="1.8414" fill="#2F235A"/>
<circle cx="137.94" cy="133.36" r="1.8414" fill="#FE9076"/>
<circle cx="45.3204" cy="178.847" r="1.8414" fill="#FFA400"/>
<circle cx="127.847" cy="214.557" r="1.8414" fill="#23BB86"/>
<path d="M133.428 125.675C129.265 119.957 117.538 107.744 103.934 104.635" stroke="#FE9076" stroke-width="1.60277" stroke-linecap="round"/>
<path d="M37.5511 173.911C31.3979 170.424 15.6732 164.145 1.99994 166.933" stroke="#FFA400" stroke-width="1.60277" stroke-linecap="round"/>
<path d="M121.527 219.906C118.374 222.688 110.788 230.59 105.669 239.937" stroke="#23BB86" stroke-width="1.60277" stroke-linecap="round"/>
<path fill-rule="evenodd" clip-rule="evenodd" d="M349.065 175.875C348.866 172.467 348.186 169.613 347.619 168.027C346.507 170.809 345.957 173.48 345.771 175.915C343.335 176.101 340.664 176.651 337.883 177.764C339.469 178.331 342.322 179.01 345.731 179.21C345.921 182.828 346.851 185.64 347.619 187.08C348.554 184.463 348.981 181.772 349.092 179.236C351.627 179.125 354.319 178.699 356.936 177.764C355.495 176.996 352.684 176.065 349.065 175.875Z" fill="url(#paint11_linear)"/>
<path fill-rule="evenodd" clip-rule="evenodd" d="M375.953 153.449C375.82 151.18 375.367 149.28 374.99 148.225C374.25 150.076 373.884 151.854 373.76 153.475C372.139 153.599 370.361 153.965 368.509 154.706C369.565 155.083 371.464 155.535 373.733 155.668C373.86 158.077 374.479 159.948 374.99 160.907C375.613 159.165 375.896 157.373 375.97 155.686C377.658 155.612 379.45 155.328 381.192 154.706C380.233 154.195 378.361 153.575 375.953 153.449Z" fill="url(#paint12_linear)"/>
<path fill-rule="evenodd" clip-rule="evenodd" d="M419.276 137.471C419.076 134.062 418.397 131.209 417.83 129.623C416.718 132.405 416.168 135.075 415.982 137.511C413.546 137.697 410.875 138.247 408.093 139.36C409.679 139.926 412.533 140.606 415.941 140.805C416.132 144.424 417.062 147.236 417.83 148.676C418.765 146.059 419.191 143.367 419.303 140.832C421.838 140.721 424.53 140.294 427.146 139.36C425.706 138.592 422.895 137.661 419.276 137.471Z" fill="url(#paint13_linear)"/>
<path fill-rule="evenodd" clip-rule="evenodd" d="M415.567 215.812C415.273 210.797 414.274 206.599 413.44 204.265C411.803 208.358 410.994 212.287 410.72 215.871C407.137 216.144 403.208 216.954 399.115 218.591C401.448 219.424 405.646 220.424 410.661 220.717C410.941 226.041 412.31 230.178 413.44 232.297C414.815 228.447 415.443 224.487 415.606 220.757C419.336 220.593 423.296 219.966 427.146 218.591C425.028 217.461 420.891 216.091 415.567 215.812Z" fill="url(#paint14_linear)"/>
<circle r="1.8414" transform="matrix(-1 0 0 1 385.098 186.157)" fill="#2F235A"/>
<circle r="1.8414" transform="matrix(-1 0 0 1 342.84 133.36)" fill="#FE9076"/>
<circle r="1.8414" transform="matrix(-1 0 0 1 435.459 178.847)" fill="#FFA400"/>
<circle r="1.8414" transform="matrix(-1 0 0 1 352.933 214.557)" fill="#23BB86"/>
<path d="M347.352 125.675C351.515 119.957 363.242 107.744 376.846 104.635" stroke="#FE9076" stroke-width="1.60277" stroke-linecap="round"/>
<path d="M443.229 173.911C449.382 170.424 465.107 164.145 478.78 166.933" stroke="#FFA400" stroke-width="1.60277" stroke-linecap="round"/>
<path d="M359.253 219.906C362.406 222.688 369.992 230.59 375.111 239.937" stroke="#23BB86" stroke-width="1.60277" stroke-linecap="round"/>
<path d="M270.426 52.4329C268.338 49.2174 264.112 50.9691 264.112 54.4719C264.112 57.1022 269.906 61.2167 270.426 61.7517C270.95 61.2167 276.456 57.1022 276.456 54.4719C276.456 50.9956 272.518 49.2174 270.426 52.4329Z" fill="#FFBCBC"/>
<circle cx="270.284" cy="65.9987" r="13.7999" stroke="#F7F7F7" stroke-width="0.649684"/>
<path d="M220.903 33.2586C219.055 30.4128 215.315 31.9631 215.315 35.0632C215.315 37.3911 220.443 41.0326 220.903 41.5061C221.367 41.0326 226.24 37.3911 226.24 35.0632C226.24 31.9866 222.755 30.4128 220.903 33.2586Z" fill="#FFBCBC"/>
<circle cx="220.777" cy="46.3258" r="12.2135" stroke="#F7F7F7" stroke-width="0.574998"/>
<path d="M253.586 12.3477C252.322 10.4014 249.764 11.4617 249.764 13.5819C249.764 15.174 253.271 17.6645 253.586 17.9883C253.903 17.6645 257.236 15.174 257.236 13.5819C257.236 11.4778 254.852 10.4014 253.586 12.3477Z" fill="#FFBCBC"/>
<circle cx="253.5" cy="24.2808" r="8.35318" stroke="#F7F7F7" stroke-width="0.393259"/>
<path d="M195.856 1.51703C194.822 -0.0755068 192.729 0.792056 192.729 2.52686C192.729 3.82957 195.598 5.86736 195.856 6.13232C196.115 5.86736 198.842 3.82957 198.842 2.52686C198.842 0.805208 196.892 -0.0755068 195.856 1.51703Z" fill="#FFBCBC"/>
<circle cx="195.785" cy="12.9958" r="6.83488" stroke="#F7F7F7" stroke-width="0.321779"/>
<path d="M190.769 76.1736C188.511 72.6965 183.941 74.5907 183.941 78.3784C183.941 81.2227 190.206 85.672 190.769 86.2505C191.336 85.672 197.289 81.2227 197.289 78.3784C197.289 74.6194 193.031 72.6965 190.769 76.1736Z" fill="#FFBCBC"/>
<circle cx="190.615" cy="90.1235" r="14.9226" stroke="#F7F7F7" stroke-width="0.702541"/>
<defs>
<filter id="filter0_d" x="155.206" y="83.6848" width="173.661" height="125.955" filterUnits="userSpaceOnUse" color-interpolation-filters="sRGB">
<feFlood flood-opacity="0" result="BackgroundImageFix"/>
<feColorMatrix in="SourceAlpha" type="matrix" values="0 0 0 0 0 0 0 0 0 0 0 0 0 0 0 0 0 0 127 0"/>
<feOffset dy="4"/>
<feGaussianBlur stdDeviation="17"/>
<feColorMatrix type="matrix" values="0 0 0 0 0.0386285 0 0 0 0 0.0648437 0 0 0 0 0.104167 0 0 0 0.13 0"/>
<feBlend mode="normal" in2="BackgroundImageFix" result="effect1_dropShadow"/>
<feBlend mode="normal" in="SourceGraphic" in2="effect1_dropShadow" result="shape"/>
</filter>
<filter id="filter1_d" x="258.313" y="148.374" width="76.1891" height="88.7754" filterUnits="userSpaceOnUse" color-interpolation-filters="sRGB">
<feFlood flood-opacity="0" result="BackgroundImageFix"/>
<feColorMatrix in="SourceAlpha" type="matrix" values="0 0 0 0 0 0 0 0 0 0 0 0 0 0 0 0 0 0 127 0"/>
<feOffset dy="4"/>
<feGaussianBlur stdDeviation="17"/>
<feColorMatrix type="matrix" values="0 0 0 0 0.0386285 0 0 0 0 0.0648437 0 0 0 0 0.104167 0 0 0 0.13 0"/>
<feBlend mode="normal" in2="BackgroundImageFix" result="effect1_dropShadow"/>
<feBlend mode="normal" in="SourceGraphic" in2="effect1_dropShadow" result="shape"/>
</filter>
<filter id="filter2_d" x="242.14" y="134.316" width="92.2497" height="114.046" filterUnits="userSpaceOnUse" color-interpolation-filters="sRGB">
<feFlood flood-opacity="0" result="BackgroundImageFix"/>
<feColorMatrix in="SourceAlpha" type="matrix" values="0 0 0 0 0 0 0 0 0 0 0 0 0 0 0 0 0 0 127 0"/>
<feOffset dy="4"/>
<feGaussianBlur stdDeviation="17"/>
<feColorMatrix type="matrix" values="0 0 0 0 0.0386285 0 0 0 0 0.0648437 0 0 0 0 0.104167 0 0 0 0.13 0"/>
<feBlend mode="normal" in2="BackgroundImageFix" result="effect1_dropShadow"/>
<feBlend mode="normal" in="SourceGraphic" in2="effect1_dropShadow" result="shape"/>
</filter>
<filter id="filter3_d" x="147.68" y="148.374" width="76.1891" height="88.7754" filterUnits="userSpaceOnUse" color-interpolation-filters="sRGB">
<feFlood flood-opacity="0" result="BackgroundImageFix"/>
<feColorMatrix in="SourceAlpha" type="matrix" values="0 0 0 0 0 0 0 0 0 0 0 0 0 0 0 0 0 0 127 0"/>
<feOffset dy="4"/>
<feGaussianBlur stdDeviation="17"/>
<feColorMatrix type="matrix" values="0 0 0 0 0.0386285 0 0 0 0 0.0648437 0 0 0 0 0.104167 0 0 0 0.13 0"/>
<feBlend mode="normal" in2="BackgroundImageFix" result="effect1_dropShadow"/>
<feBlend mode="normal" in="SourceGraphic" in2="effect1_dropShadow" result="shape"/>
</filter>
<filter id="filter4_d" x="147.64" y="134.316" width="92.2497" height="114.046" filterUnits="userSpaceOnUse" color-interpolation-filters="sRGB">
<feFlood flood-opacity="0" result="BackgroundImageFix"/>
<feColorMatrix in="SourceAlpha" type="matrix" values="0 0 0 0 0 0 0 0 0 0 0 0 0 0 0 0 0 0 127 0"/>
<feOffset dy="4"/>
<feGaussianBlur stdDeviation="17"/>
<feColorMatrix type="matrix" values="0 0 0 0 0.0386285 0 0 0 0 0.0648437 0 0 0 0 0.104167 0 0 0 0.13 0"/>
<feBlend mode="normal" in2="BackgroundImageFix" result="effect1_dropShadow"/>
<feBlend mode="normal" in="SourceGraphic" in2="effect1_dropShadow" result="shape"/>
</filter>
<linearGradient id="paint0_linear" x1="391.781" y1="164.321" x2="394.428" y2="340.189" gradientUnits="userSpaceOnUse">
<stop stop-color="#FFEFE0"/>
<stop offset="1" stop-color="#FFBE99"/>
</linearGradient>
<linearGradient id="paint1_linear" x1="243.275" y1="206.208" x2="230.875" y2="454.546" gradientUnits="userSpaceOnUse">
<stop stop-color="#FF9F81"/>
<stop offset="1" stop-color="#F53838"/>
</linearGradient>
<linearGradient id="paint2_linear" x1="228.21" y1="293.483" x2="109.538" y2="350.358" gradientUnits="userSpaceOnUse">
<stop offset="0.0677966" stop-color="#FFEFE0"/>
<stop offset="1" stop-color="#FFBE99"/>
</linearGradient>
<linearGradient id="paint3_linear" x1="239.204" y1="178.975" x2="241.284" y2="245.361" gradientUnits="userSpaceOnUse">
<stop stop-color="#FFEFE0"/>
<stop offset="1" stop-color="#FFBE99"/>
</linearGradient>
<linearGradient id="paint4_linear" x1="239.204" y1="178.975" x2="236.29" y2="254.606" gradientUnits="userSpaceOnUse">
<stop stop-color="#FFEFE0"/>
<stop offset="1" stop-color="#FFBE99"/>
</linearGradient>
<linearGradient id="paint5_linear" x1="242.661" y1="143.583" x2="242.661" y2="223.302" gradientUnits="userSpaceOnUse">
<stop stop-color="#FFEFE0"/>
<stop offset="1" stop-color="#FFBE99"/>
</linearGradient>
<linearGradient id="paint6_linear" x1="275.829" y1="232.235" x2="217.724" y2="440.729" gradientUnits="userSpaceOnUse">
<stop offset="0.0171777" stop-color="white"/>
<stop offset="1" stop-color="#D7D7D7"/>
</linearGradient>
<linearGradient id="paint7_linear" x1="133.371" y1="170.055" x2="133.371" y2="187.945" gradientUnits="userSpaceOnUse">
<stop stop-color="#FFE89E"/>
<stop offset="1" stop-color="#FFBF1A"/>
</linearGradient>
<linearGradient id="paint8_linear" x1="105.93" y1="149.575" x2="105.93" y2="161.482" gradientUnits="userSpaceOnUse">
<stop stop-color="#FFE89E"/>
<stop offset="1" stop-color="#FFBF1A"/>
</linearGradient>
<linearGradient id="paint9_linear" x1="63.1602" y1="131.651" x2="63.1602" y2="149.54" gradientUnits="userSpaceOnUse">
<stop stop-color="#FFE89E"/>
<stop offset="1" stop-color="#FFBF1A"/>
</linearGradient>
<linearGradient id="paint10_linear" x1="67.6493" y1="207.249" x2="67.6493" y2="233.569" gradientUnits="userSpaceOnUse">
<stop stop-color="#FFE89E"/>
<stop offset="1" stop-color="#FFBF1A"/>
</linearGradient>
<linearGradient id="paint11_linear" x1="347.409" y1="170.055" x2="347.409" y2="187.945" gradientUnits="userSpaceOnUse">
<stop stop-color="#FFE89E"/>
<stop offset="1" stop-color="#FFBF1A"/>
</linearGradient>
<linearGradient id="paint12_linear" x1="374.85" y1="149.575" x2="374.85" y2="161.482" gradientUnits="userSpaceOnUse">
<stop stop-color="#FFE89E"/>
<stop offset="1" stop-color="#FFBF1A"/>
</linearGradient>
<linearGradient id="paint13_linear" x1="417.62" y1="131.651" x2="417.62" y2="149.54" gradientUnits="userSpaceOnUse">
<stop stop-color="#FFE89E"/>
<stop offset="1" stop-color="#FFBF1A"/>
</linearGradient>
<linearGradient id="paint14_linear" x1="413.131" y1="207.249" x2="413.131" y2="233.569" gradientUnits="userSpaceOnUse">
<stop stop-color="#FFE89E"/>
<stop offset="1" stop-color="#FFBF1A"/>
</linearGradient>
</defs>
</svg>
